<svg width="25" height="16" viewBox="0 0 25 16" fill="none" xmlns="http://www.w3.org/2000/svg">
<path d="M1.0017 7.36469C0.710208 7.73882 0.710208 8.26317 1.0017 8.63729C1.9075 9.82029 6.72 15.7003 12.6 15.7003C18.48 15.7003 23.2925 9.82029 24.1983 8.63589C24.4896 8.26221 24.4896 7.73837 24.1983 7.36469C23.2925 6.18379 18.48 0.300293 12.6 0.300293C6.72 0.300293 1.9075 6.18379 1.0017 7.36469ZM22.5554 8.44129C21.0406 10.2403 17.1206 14.3003 12.6 14.3003C8.0794 14.3003 4.1587 10.2403 2.6446 8.44129C3.94546 7.08659 5.54577 6.05568 7.3171 5.43129C6.5028 7.75 7.2954 10.3287 9.27147 11.7897C11.2475 13.2507 13.9453 13.2527 15.9235 11.7946C17.9017 10.3364 18.698 7.75888 17.8871 5.43899C19.6535 6.06714 21.2511 7.09458 22.5554 8.44129ZM8.4 7.30029C8.39716 6.42621 8.676 5.57447 9.1952 4.87129C11.4391 4.37522 13.7644 4.37666 16.0076 4.87549C16.5249 5.57788 16.8027 6.42797 16.8 7.30029C16.8 9.61989 14.9196 11.5003 12.6 11.5003C10.2804 11.5003 8.4 9.61989 8.4 7.30029ZM12.6 1.70029C15.2516 1.70029 17.6939 3.10029 19.5706 4.62209C17.3906 3.59843 15.0083 3.07833 12.6 3.10029C10.1917 3.07833 7.80938 3.59843 5.6294 4.62209C7.5061 3.10029 9.9484 1.70029 12.6 1.70029Z" fill="white"/>
</svg>
