<svg width="36" height="42" viewBox="0 0 36 42" fill="none" xmlns="http://www.w3.org/2000/svg">
<path d="M15 7.80963e-06C9.85767 -0.00443069 4.89343 1.8832 1.05321 5.30321C0.663291 5.6496 0.586735 6.2297 0.873447 6.66539C1.16016 7.10108 1.72322 7.26028 2.19561 7.03921C4.23104 6.08554 6.45226 5.59406 8.70001 5.60001C15.0079 5.60208 20.6767 9.45069 23.0063 15.3126C25.3358 21.1746 23.8551 27.8645 19.2693 32.1957C14.6835 36.527 7.92003 37.6237 2.20051 34.9636C1.72721 34.7407 1.16204 34.9003 0.875152 35.3377C0.588259 35.7752 0.667174 36.3571 1.06021 36.7024C4.89668 40.1233 9.85986 42.0095 15 42C15.2429 42 15.49 41.9958 15.7315 41.9867C26.4912 41.5446 35.2003 33.0875 35.958 22.3454C36.35 16.5454 34.3017 10.8452 30.3076 6.62131C26.332 2.40416 20.7957 0.00944996 15 7.80963e-06ZM34.5608 22.26C34.1063 29.3254 29.8768 35.5964 23.4964 38.6651C17.116 41.7337 9.57659 41.1229 3.77341 37.0671C5.48233 37.5895 7.26342 37.8369 9.05001 37.8C15.6003 37.6519 21.4669 33.7093 24.0783 27.7002C26.6897 21.6911 25.5694 14.7122 21.2084 9.82234C16.8475 4.93251 10.0416 3.0241 3.77411 4.93361C9.94861 0.618662 18.0497 0.224095 24.6143 3.91858C31.1789 7.61306 35.0453 14.7428 34.5608 22.26Z" fill="white"/>
</svg>
