<svg width="19" height="18" viewBox="0 0 19 18" fill="none" xmlns="http://www.w3.org/2000/svg">
<path d="M13.7817 0.000976562H4.78187C2.30715 0.000976562 0.281982 2.02615 0.281982 4.50087V13.5011C0.281982 15.9751 2.30715 18.001 4.78187 18.001H13.7817C16.2564 18.001 18.2815 15.9751 18.2815 13.5011V4.50087C18.2815 2.02615 16.2564 0.000976562 13.7817 0.000976562ZM16.7815 13.5011C16.7815 15.1548 15.4363 16.5009 13.7817 16.5009H4.78187C3.12794 16.5009 1.78202 15.1548 1.78202 13.5011V4.50087C1.78202 2.84672 3.12794 1.50101 4.78187 1.50101H13.7817C15.4363 1.50101 16.7815 2.84672 16.7815 4.50087V13.5011Z" fill="white"/>
</svg>
