<svg width="58.972656" height="59.000000" viewBox="0 0 58.9727 59" fill="none" xmlns="http://www.w3.org/2000/svg" xmlns:xlink="http://www.w3.org/1999/xlink">
	<desc>
			Created with Pixso.
	</desc>
	<defs>
		<linearGradient x1="62.828705" y1="65.126915" x2="-20.486923" y2="-48.628922" id="paint_linear_58_9515_0" gradientUnits="userSpaceOnUse">
			<stop stop-color="#0B3F37"/>
			<stop offset="0.969562" stop-color="#CB8D62"/>
		</linearGradient>
	</defs>
	<path id="Shape" d="M57.29 0.28L53.07 4.5L53.07 0.98C53.07 0.58 52.83 0.22 52.46 0.07C52.1 -0.08 51.67 0 51.39 0.28L45.5 6.18C45.31 6.36 45.21 6.61 45.21 6.88L45.21 12.37L42.9 14.67C38.93 10.98 33.88 8.66 28.5 8.03L28.5 5.89C30.13 5.89 31.45 4.57 31.45 2.94C31.45 1.32 30.13 0 28.5 0L22.6 0C20.97 0 19.65 1.32 19.65 2.94C19.65 4.57 20.97 5.89 22.6 5.89L22.6 8.03C17.9 8.58 13.44 10.42 9.73 13.36L8.04 11.67C6.86 10.56 5.01 10.56 3.82 11.67C3.26 12.23 2.94 12.99 2.94 13.79C2.94 14.58 3.26 15.34 3.82 15.9L5.5 17.59C-2.93 28.26 -1.53 43.67 8.69 52.65C18.92 61.62 34.38 61.01 43.87 51.26C53.35 41.51 53.54 26.04 44.29 16.06L46.6 13.76L52.09 13.76C52.35 13.76 52.6 13.65 52.78 13.47L58.68 7.57C58.96 7.29 59.05 6.87 58.89 6.5C58.74 6.13 58.38 5.89 57.99 5.89L54.46 5.89L58.68 1.67C59.05 1.29 59.05 0.67 58.67 0.3C58.29 -0.08 57.68 -0.09 57.29 0.28ZM47.17 7.28L51.1 3.35L51.1 6.47L47.17 10.4L47.17 7.28ZM21.62 2.94C21.62 2.4 22.06 1.96 22.6 1.96L28.5 1.96C29.04 1.96 29.48 2.4 29.48 2.94C29.48 3.49 29.04 3.93 28.5 3.93L22.6 3.93C22.06 3.93 21.62 3.49 21.62 2.94ZM24.57 5.89L26.53 5.89L26.53 7.88C26.21 7.87 25.88 7.86 25.55 7.86C25.22 7.86 24.89 7.87 24.57 7.88L24.57 5.89ZM5.21 14.52C5.02 14.32 4.91 14.06 4.91 13.78C4.91 13.51 5.02 13.25 5.22 13.06C5.41 12.87 5.66 12.77 5.93 12.77C6.2 12.77 6.46 12.88 6.65 13.07L8.23 14.64C7.73 15.1 7.25 15.59 6.78 16.09L5.21 14.52ZM49.14 33.41C49.15 44.59 41.33 54.26 30.39 56.56C19.45 58.87 8.39 53.19 3.89 42.95C-0.61 32.72 2.68 20.73 11.78 14.23C20.87 7.73 33.28 8.49 41.51 16.06L40.12 17.45C31.43 9.52 18 9.98 9.87 18.48C1.74 26.99 1.89 40.43 10.21 48.75C18.53 57.07 31.97 57.22 40.48 49.09C48.99 40.97 49.44 27.53 41.51 18.84L42.9 17.45C46.91 21.8 49.14 27.5 49.14 33.41ZM28.5 33.41C28.5 35.04 27.18 36.36 25.55 36.36C23.92 36.36 22.6 35.04 22.6 33.41C22.6 31.79 23.92 30.47 25.55 30.47C25.99 30.47 26.42 30.57 26.81 30.76L24.85 32.72C24.6 32.96 24.5 33.33 24.59 33.67C24.68 34.02 24.94 34.29 25.29 34.38C25.63 34.47 26 34.36 26.24 34.11L28.2 32.15C28.4 32.54 28.5 32.98 28.5 33.41ZM28.26 29.32C26.14 27.92 23.32 28.35 21.72 30.31C20.12 32.27 20.26 35.12 22.05 36.91C23.84 38.7 26.69 38.85 28.65 37.25C30.61 35.64 31.04 32.82 29.64 30.71L32.45 27.9C35.39 31.58 34.95 36.91 31.44 40.05C27.93 43.18 22.58 43.04 19.26 39.71C15.93 36.38 15.78 31.03 18.92 27.52C22.06 24.02 27.39 23.57 31.06 26.51L28.26 29.32ZM32.46 25.11C28.02 21.4 21.44 21.85 17.54 26.13C13.63 30.4 13.78 36.99 17.88 41.09C21.97 45.18 28.56 45.33 32.83 41.43C37.11 37.52 37.56 30.95 33.85 26.5L36.63 23.72C41.89 29.73 41.43 38.82 35.61 44.27C29.78 49.72 20.68 49.57 15.04 43.93C9.39 38.28 9.24 29.18 14.7 23.36C20.15 17.53 29.24 17.08 35.24 22.33L32.46 25.11ZM36.63 20.94C29.85 14.91 19.51 15.37 13.29 21.97C7.06 28.57 7.22 38.92 13.63 45.33C20.04 51.75 30.39 51.9 36.99 45.68C43.59 39.45 44.05 29.11 38.02 22.33L40.1 20.25C47.28 28.2 46.8 40.42 39.03 47.79C31.26 55.15 19.03 54.98 11.47 47.39C3.91 39.81 3.78 27.58 11.18 19.84C18.57 12.09 30.79 11.66 38.72 18.86L36.63 20.94ZM55.61 7.86L51.68 11.79L48.56 11.79L52.49 7.86L55.61 7.86Z" fill="url(#paint_linear_58_9515_0)" fill-opacity="1.000000" fill-rule="nonzero"/>
</svg>
